<svg width="11" height="11" viewBox="0 0 11 11" fill="none" xmlns="http://www.w3.org/2000/svg">
<path d="M5.16335 0.203285C3.28002 0.203285 1.58335 1.24662 0.733348 2.92662C0.650014 3.08995 0.716682 3.28995 0.880015 3.37328C1.04335 3.45662 1.24335 3.38995 1.32668 3.22662C2.06335 1.76995 3.53335 0.866617 5.16335 0.866617C7.53335 0.866617 9.46001 2.79328 9.46001 5.16329C9.46001 7.53329 7.53335 9.45995 5.16335 9.45995C2.79335 9.45995 0.866679 7.53329 0.866679 5.16329C0.866679 4.97995 0.716679 4.82995 0.533346 4.82995C0.350012 4.82995 0.200012 4.97995 0.200012 5.16329C0.200012 7.89995 2.42668 10.1266 5.16335 10.1266C7.90002 10.1266 10.1267 7.89995 10.1267 5.16329C10.1267 2.42662 7.90002 0.199951 5.16335 0.199951V0.203285Z" fill="#4F4F4F"/>
<path d="M4.60331 3.33998V2.43331C4.60331 2.24998 4.45331 2.09998 4.26998 2.09998C4.08665 2.09998 3.93665 2.24998 3.93665 2.43331V3.33998C3.93665 3.52331 4.08665 3.67331 4.26998 3.67331C4.45331 3.67331 4.60331 3.52331 4.60331 3.33998Z" fill="#4F4F4F"/>
<path d="M6.38999 3.33998V2.43331C6.38999 2.24998 6.23999 2.09998 6.05666 2.09998C5.87333 2.09998 5.72333 2.24998 5.72333 2.43331V3.33998C5.72333 3.52331 5.87333 3.67331 6.05666 3.67331C6.23999 3.67331 6.38999 3.52331 6.38999 3.33998Z" fill="#4F4F4F"/>
<path d="M3.07999 6.42991C3.07999 7.70658 4.01332 8.74324 5.16332 8.74324C6.31332 8.74324 7.24665 7.70658 7.24665 6.42991C7.24665 5.15324 6.31332 4.11658 5.16332 4.11658C4.01332 4.11658 3.07999 5.15324 3.07999 6.42991ZM5.16332 4.78324C5.94332 4.78324 6.57999 5.51991 6.57999 6.42991C6.57999 7.33991 5.94332 8.07658 5.16332 8.07658C4.38332 8.07658 3.74665 7.33991 3.74665 6.42991C3.74665 5.51991 4.38332 4.78324 5.16332 4.78324Z" fill="#4F4F4F"/>
</svg>
