<svg width="18" height="16" viewBox="0 0 18 16" fill="none" xmlns="http://www.w3.org/2000/svg">
<path d="M17.1133 7.33343H2.49332L7.87999 1.94677C8.13999 1.68677 8.13999 1.26677 7.87999 1.00677C7.61999 0.746768 7.19999 0.746768 6.93999 1.00677L0.419991 7.52677C0.226657 7.7201 0.173323 8.00677 0.273323 8.25344C0.373323 8.5001 0.619991 8.66677 0.886658 8.66677H17.1133C17.48 8.66677 17.78 8.36677 17.78 8.0001C17.78 7.63343 17.48 7.33343 17.1133 7.33343Z" fill="black"/>
<path d="M4.06664 10.2402C3.80664 9.98017 3.38664 9.98017 3.12664 10.2402C2.86664 10.5002 2.86664 10.9202 3.12664 11.1802L6.93331 14.9868C7.06664 15.1202 7.23331 15.1802 7.40664 15.1802C7.57998 15.1802 7.74664 15.1135 7.87997 14.9868C8.13997 14.7268 8.13997 14.3068 7.87997 14.0468L4.07331 10.2402H4.06664Z" fill="black"/>
</svg>
