<svg width="11" height="11" viewBox="0 0 11 11" fill="none" xmlns="http://www.w3.org/2000/svg">
<path d="M5.16335 0.203285C3.28001 0.203285 1.58335 1.24662 0.733348 2.92662C0.650014 3.08995 0.716682 3.28995 0.880015 3.37328C1.04335 3.45662 1.24335 3.38995 1.32668 3.22662C2.06335 1.76995 3.53335 0.866617 5.16335 0.866617C7.53335 0.866617 9.46001 2.79328 9.46001 5.16329C9.46001 7.53329 7.53335 9.45995 5.16335 9.45995C2.79335 9.45995 0.866679 7.53329 0.866679 5.16329C0.866679 4.97995 0.716679 4.82995 0.533346 4.82995C0.350012 4.82995 0.200012 4.97995 0.200012 5.16329C0.200012 7.89995 2.42668 10.1266 5.16335 10.1266C7.90001 10.1266 10.1267 7.89995 10.1267 5.16329C10.1267 2.42662 7.90001 0.199951 5.16335 0.199951V0.203285Z" fill="#4F4F4F"/>
<path d="M2.58663 7.0599C2.52663 7.23323 2.61663 7.42323 2.78996 7.48657C2.82663 7.4999 2.86329 7.50657 2.89996 7.50657C3.03663 7.50657 3.16663 7.4199 3.21329 7.28323C3.47996 6.5299 4.26329 6.02323 5.15996 6.02323C6.05663 6.02323 6.83996 6.5299 7.10663 7.28323C7.16663 7.45657 7.35996 7.54657 7.53329 7.48657C7.70663 7.42657 7.79663 7.23323 7.73663 7.0599C7.37663 6.0399 6.33996 5.35657 5.15996 5.35657C3.97996 5.35657 2.94663 6.0399 2.5833 7.0599H2.58663Z" fill="#4F4F4F"/>
<path d="M4.33996 4.40326C4.41329 4.40326 4.48663 4.37993 4.54663 4.32993C4.68996 4.21326 4.71329 4.00326 4.59662 3.85993L4.00996 3.12992C3.89329 2.98659 3.68329 2.96326 3.53996 3.07993C3.39662 3.19659 3.37329 3.40659 3.48996 3.54993L4.07663 4.27993C4.14329 4.36326 4.23996 4.40326 4.33662 4.40326H4.33996Z" fill="#4F4F4F"/>
<path d="M6.24665 4.27999L6.83332 3.54999C6.94999 3.40666 6.92665 3.19666 6.78332 3.07999C6.63999 2.96666 6.42999 2.98666 6.31332 3.12999L5.72665 3.85999C5.60999 4.00333 5.63332 4.21333 5.77666 4.32999C5.83666 4.37999 5.91332 4.40333 5.98332 4.40333C6.07999 4.40333 6.17665 4.35999 6.24332 4.27999H6.24665Z" fill="#4F4F4F"/>
</svg>
