<svg width="17" height="17" viewBox="0 0 17 17" fill="none" xmlns="http://www.w3.org/2000/svg">
<path d="M8.27223 0.00555568C5.13334 0.00555568 2.30556 1.74444 0.888892 4.54444C0.750003 4.81667 0.861116 5.15 1.13334 5.28889C1.40556 5.42778 1.73889 5.31667 1.87778 5.04444C3.10556 2.61667 5.55556 1.11111 8.27223 1.11111C12.2222 1.11111 15.4333 4.32222 15.4333 8.27222C15.4333 12.2222 12.2222 15.4333 8.27223 15.4333C4.32223 15.4333 1.11111 12.2222 1.11111 8.27222C1.11111 7.96667 0.861111 7.71667 0.555556 7.71667C0.25 7.71667 0 7.96667 0 8.27222C0 12.8333 3.71112 16.5444 8.27223 16.5444C12.8333 16.5444 16.5444 12.8333 16.5444 8.27222C16.5444 3.71111 12.8333 0 8.27223 0V0.00555568Z" fill="current"/>
<path d="M7.33883 5.23342V3.7223C7.33883 3.41675 7.08883 3.16675 6.78328 3.16675C6.47772 3.16675 6.22772 3.41675 6.22772 3.7223V5.23342C6.22772 5.53897 6.47772 5.78897 6.78328 5.78897C7.08883 5.78897 7.33883 5.53897 7.33883 5.23342Z" fill="current"/>
<path d="M10.3167 5.23342V3.7223C10.3167 3.41675 10.0667 3.16675 9.76112 3.16675C9.45557 3.16675 9.20557 3.41675 9.20557 3.7223V5.23342C9.20557 5.53897 9.45557 5.78897 9.76112 5.78897C10.0667 5.78897 10.3167 5.53897 10.3167 5.23342Z" fill="current"/>
<path d="M4.79999 10.3833C4.79999 12.511 6.35554 14.2388 8.27221 14.2388C10.1889 14.2388 11.7444 12.511 11.7444 10.3833C11.7444 8.25549 10.1889 6.52771 8.27221 6.52771C6.35554 6.52771 4.79999 8.25549 4.79999 10.3833ZM8.27221 7.63882C9.57221 7.63882 10.6333 8.8666 10.6333 10.3833C10.6333 11.8999 9.57221 13.1277 8.27221 13.1277C6.97221 13.1277 5.9111 11.8999 5.9111 10.3833C5.9111 8.8666 6.97221 7.63882 8.27221 7.63882Z" fill="current"/>
</svg>
