<svg width="24" height="18" viewBox="0 0 24 18" fill="none" xmlns="http://www.w3.org/2000/svg">
<path d="M1.84434 2.07394H22.1654C22.7004 2.07394 23.1381 1.6362 23.1381 1.10118C23.1381 0.566161 22.7004 0.128418 22.1654 0.128418H1.84434C1.30933 0.128418 0.871582 0.566161 0.871582 1.10118C0.871582 1.6362 1.30933 2.07394 1.84434 2.07394Z" fill="black"/>
<path d="M22.1654 8.02734H1.84434C1.30933 8.02734 0.871582 8.46509 0.871582 9.00011C0.871582 9.53513 1.30933 9.97287 1.84434 9.97287H22.1654C22.7004 9.97287 23.1381 9.53513 23.1381 9.00011C23.1381 8.46509 22.7004 8.02734 22.1654 8.02734Z" fill="black"/>
<path d="M22.1654 15.9358H1.84434C1.30933 15.9358 0.871582 16.3735 0.871582 16.9086C0.871582 17.4436 1.30933 17.8813 1.84434 17.8813H22.1654C22.7004 17.8813 23.1381 17.4436 23.1381 16.9086C23.1381 16.3735 22.7004 15.9358 22.1654 15.9358Z" fill="black"/>
</svg>
