<svg width="20" height="18" viewBox="0 0 20 18" fill="none" xmlns="http://www.w3.org/2000/svg">
<path d="M9.99998 0.922241C4.71665 0.922241 0.422211 4.54446 0.422211 9.00002C0.422211 9.98891 0.633319 10.9611 1.04443 11.8778C1.17221 12.1556 1.49999 12.2833 1.77777 12.1556C2.05554 12.0278 2.18332 11.7 2.05554 11.4222C1.70555 10.65 1.52776 9.83335 1.52776 9.00002C1.52776 5.15557 5.32777 2.03335 9.99444 2.03335C14.6611 2.03335 18.4611 5.16113 18.4611 9.00002C18.4611 12.8389 14.6611 15.9667 9.99444 15.9667C8.08333 15.9667 6.27776 15.4556 4.77776 14.4833C4.51665 14.3167 4.17776 14.3889 4.01109 14.65C3.84443 14.9056 3.91666 15.25 4.17777 15.4167C5.8611 16.5 7.8722 17.0778 9.99998 17.0778C15.2833 17.0778 19.5778 13.4556 19.5778 9.00002C19.5778 4.54446 15.2833 0.922241 9.99998 0.922241Z" fill="#4F4F4F"/>
<path d="M6.54994 7.83334H13.3888C13.6944 7.83334 13.9444 7.58334 13.9444 7.27778C13.9444 6.97223 13.6944 6.72223 13.3888 6.72223H6.54994C6.24438 6.72223 5.99438 6.97223 5.99438 7.27778C5.99438 7.58334 6.24438 7.83334 6.54994 7.83334Z" fill="#4F4F4F"/>
<path d="M6.54994 10.8611H11.2833C11.5888 10.8611 11.8388 10.6111 11.8388 10.3056C11.8388 10 11.5888 9.75 11.2833 9.75H6.54994C6.24438 9.75 5.99438 10 5.99438 10.3056C5.99438 10.6111 6.24438 10.8611 6.54994 10.8611Z" fill="#4F4F4F"/>
</svg>
