<svg width="11" height="11" viewBox="0 0 11 11" fill="none" xmlns="http://www.w3.org/2000/svg">
<path d="M5.60617 0.224752C3.54284 0.0214188 1.60618 1.08142 0.672843 2.92475C0.58951 3.08809 0.656176 3.28809 0.81951 3.37142C0.982843 3.45475 1.18618 3.38808 1.26618 3.22475C2.07284 1.62808 3.75284 0.711419 5.53951 0.888085C7.63618 1.09475 9.29284 2.84142 9.39284 4.95142C9.44951 6.14142 9.02951 7.26809 8.21284 8.12809C7.39284 8.98809 6.28951 9.46142 5.10284 9.46142C3.01284 9.46142 1.23284 7.97142 0.872843 5.91475C0.852843 5.80809 0.882842 5.70475 0.952842 5.62142C1.02284 5.53809 1.12618 5.48809 1.23284 5.48475C1.40951 5.49142 1.55951 5.60809 1.60284 5.78809C1.99618 7.50809 3.47618 8.75142 5.12618 8.75142H5.13618C6.59284 8.74809 7.87284 7.70809 8.39618 6.10475C8.45284 5.93142 8.35618 5.74142 8.18284 5.68475C8.00951 5.62809 7.81951 5.72475 7.76284 5.89809C7.32951 7.22142 6.29951 8.08142 5.13284 8.08475H5.12284C3.78284 8.08475 2.57618 7.05809 2.24951 5.63809C2.13951 5.15142 1.72284 4.81809 1.23951 4.81809H1.21951C0.916175 4.82475 0.629509 4.96142 0.436176 5.19809C0.242843 5.43142 0.162843 5.73475 0.216176 6.03142C0.632843 8.40475 2.68951 10.1281 5.10284 10.1281C6.47284 10.1281 7.74951 9.58142 8.69617 8.58809C9.64284 7.59475 10.1262 6.29475 10.0595 4.92142C9.94284 2.48475 8.02951 0.464752 5.60617 0.228086V0.224752Z" fill="#4F4F4F"/>
<path d="M4.44615 4.79811V3.89144C4.44615 3.70811 4.29615 3.55811 4.11281 3.55811C3.92948 3.55811 3.77948 3.70811 3.77948 3.89144V4.79811C3.77948 4.98144 3.92948 5.13144 4.11281 5.13144C4.29615 5.13144 4.44615 4.98144 4.44615 4.79811Z" fill="#4F4F4F"/>
<path d="M6.35288 4.79811V3.89144C6.35288 3.70811 6.20288 3.55811 6.01955 3.55811C5.83622 3.55811 5.68622 3.70811 5.68622 3.89144V4.79811C5.68622 4.98144 5.83622 5.13144 6.01955 5.13144C6.20288 5.13144 6.35288 4.98144 6.35288 4.79811Z" fill="#4F4F4F"/>
</svg>
