<svg width="32" height="40" viewBox="0 0 52 62" fill="none" xmlns="http://www.w3.org/2000/svg">
<path d="M26.0057 1.7168C12.6043 1.7168 1.7079 12.6701 1.7079 26.1414C1.7079 36.7742 8.64199 46.1595 18.5137 49.3756L20.9275 56.4718C21.5879 58.7266 23.6374 60.2832 26.0057 60.2832C28.374 60.2832 30.4235 58.738 31.0839 56.4718L33.4977 49.3756C43.3808 46.1595 50.3035 36.7628 50.3035 26.1414C50.2921 12.6701 39.3957 1.7168 26.0057 1.7168Z" fill="white"/>
<path d="M26.0057 62C22.8745 62 20.176 59.9742 19.2993 56.964L17.1815 50.7262C7.02518 47.0294 0 37.0375 0 26.1414C0 11.7201 11.6593 0 26.0057 0C40.3521 0 52.0114 11.7201 52.0114 26.1414C52.0114 37.0375 44.9862 47.0294 34.8413 50.7262L32.7007 57.0212C31.8353 59.9627 29.1482 61.9886 26.0057 61.9886V62ZM26.0057 3.43363C13.5494 3.43363 3.41581 13.6201 3.41581 26.1414C3.41581 35.8586 9.84892 44.7517 19.0488 47.7504L19.8572 48.0137L22.5443 55.9225C23.0226 57.5363 24.4003 58.5664 26.0057 58.5664C27.6111 58.5664 28.9888 57.5363 29.4443 55.9911L32.1542 48.0137L32.9626 47.7504C42.1625 44.7517 48.5956 35.87 48.5956 26.1414C48.5956 13.6201 38.462 3.43363 26.0057 3.43363Z" fill="#666666"/>
</svg>
