<svg width="18" height="16" viewBox="0 0 18 16" fill="none" xmlns="http://www.w3.org/2000/svg">
<path d="M17.3111 13.3167L15.6278 10.4C15.4722 10.1333 15.1334 10.0445 14.8667 10.1945C14.6 10.35 14.5111 10.6889 14.6611 10.9556L16.3445 13.8722C16.45 14.05 16.3778 14.2056 16.3445 14.2667C16.3111 14.3278 16.2111 14.4611 16.0056 14.4611H1.99446C1.78891 14.4611 1.68891 14.3222 1.65557 14.2667C1.62224 14.2111 1.55002 14.05 1.65557 13.8722L8.66113 1.73891C8.76113 1.56113 8.93335 1.54446 9.00002 1.54446C9.06669 1.54446 9.23891 1.56113 9.33891 1.73891L12.8445 7.80557C13 8.07224 13.3389 8.16113 13.6056 8.01113C13.8722 7.85557 13.9611 7.51668 13.8111 7.25002L10.3056 1.18335C10.0334 0.711129 9.54446 0.43335 9.00002 0.43335C8.45557 0.43335 7.96669 0.716684 7.69446 1.18335L0.688908 13.3167C0.416686 13.7889 0.416686 14.35 0.688908 14.8222C0.96113 15.2945 1.45002 15.5722 1.99446 15.5722H16.0056C16.55 15.5722 17.0389 15.2889 17.3111 14.8222C17.5834 14.35 17.5834 13.7889 17.3111 13.3167Z" fill="current"/>
<path d="M9.55551 5.84437C9.55551 5.53882 9.30551 5.28882 8.99995 5.28882C8.6944 5.28882 8.4444 5.53882 8.4444 5.84437V9.94437C8.4444 10.2499 8.6944 10.4999 8.99995 10.4999C9.30551 10.4999 9.55551 10.2499 9.55551 9.94437V5.84437Z" fill="current"/>
<path d="M8.60551 11.889C8.55551 11.939 8.51662 12.0001 8.48884 12.0724C8.46106 12.139 8.4444 12.2113 8.4444 12.2835C8.4444 12.3557 8.46106 12.4279 8.48884 12.4946C8.51662 12.5613 8.55551 12.6224 8.60551 12.6724C8.66106 12.7279 8.72217 12.7668 8.78884 12.7946C8.85551 12.8224 8.92773 12.839 8.99995 12.839C9.14995 12.839 9.28884 12.7779 9.3944 12.6724C9.49995 12.5724 9.55551 12.4279 9.55551 12.2835C9.55551 12.2113 9.5444 12.139 9.51106 12.0724C9.48328 12.0001 9.4444 11.939 9.3944 11.889C9.18329 11.6835 8.81662 11.6835 8.60551 11.889Z" fill="current"/>
</svg>
