<svg width="32" height="40" viewBox="0 0 32 40" fill="none" xmlns="http://www.w3.org/2000/svg">
<path d="M16 0.830078C7.19002 0.830078 0.0200195 8.00008 0.0200195 16.8101C0.0200195 23.7701 4.58002 29.9101 11.08 32.0201L12.67 36.6701C13.11 38.1501 14.45 39.1601 16.01 39.1601C17.57 39.1601 18.91 38.1501 19.35 36.6701L20.94 32.0201C27.44 29.9101 32 23.7701 32 16.8101C32 8.00008 24.83 0.830078 16.01 0.830078H16ZM14.45 8.49008C14.45 7.64008 15.14 6.94008 16 6.94008C16.86 6.94008 17.55 7.63008 17.55 8.49008V18.5001C17.55 18.9301 17.38 19.3101 17.1 19.5901C16.82 19.8701 16.43 20.0401 16.01 20.0401C15.16 20.0401 14.46 19.3501 14.46 18.4901V8.48008L14.45 8.49008ZM17.44 26.0801C17.05 26.4801 16.57 26.6901 16.01 26.6901C15.45 26.6901 14.95 26.4901 14.56 26.1001C14.17 25.7101 13.97 25.2201 13.97 24.6501C13.97 24.0801 14.17 23.6201 14.56 23.2301C14.95 22.8401 15.44 22.6401 16.01 22.6401C16.58 22.6401 17.04 22.8401 17.44 23.2301C17.84 23.6201 18.03 24.1001 18.03 24.6501C18.03 25.2001 17.83 25.6901 17.44 26.0901V26.0801Z" fill="#F5564E"/>
<path d="M17.44 23.2201C17.83 23.6101 18.03 24.0901 18.03 24.6401C18.03 25.1901 17.83 25.6801 17.44 26.0801C17.05 26.4801 16.57 26.6901 16.01 26.6901C15.45 26.6901 14.95 26.4901 14.56 26.1001C14.17 25.7101 13.97 25.2201 13.97 24.6501C13.97 24.0801 14.17 23.6201 14.56 23.2301C14.95 22.8401 15.44 22.6401 16.01 22.6401C16.58 22.6401 17.04 22.8401 17.44 23.2301V23.2201Z" fill="white"/>
<path d="M17.55 8.49018V18.5002C17.55 18.9302 17.38 19.3102 17.1 19.5902C16.82 19.8702 16.43 20.0402 16.01 20.0402C15.16 20.0402 14.46 19.3502 14.46 18.4902V8.48018C14.46 7.63017 15.15 6.93018 16.01 6.93018C16.87 6.93018 17.56 7.62018 17.56 8.48018L17.55 8.49018Z" fill="white"/>
</svg>
