<svg width="18" height="26" viewBox="0 0 18 26" fill="none" xmlns="http://www.w3.org/2000/svg">
<path d="M15.0667 3.23894C13.2156 1.52783 10.8045 0.695607 8.2845 0.890051C3.50117 1.26338 -0.2555 5.80561 0.0867219 10.8223C0.662277 19.2845 8.22228 24.7678 8.54894 24.9934C8.68116 25.0867 8.8445 25.1412 9.00005 25.1412C9.15561 25.1412 9.30339 25.0945 9.43561 25.0089C9.64561 24.8612 14.6934 21.3689 16.9178 15.3878C17.0034 15.1467 16.9723 14.8823 16.8245 14.6723C16.6767 14.4623 16.4434 14.3378 16.1867 14.3378H9.42783C7.52228 14.3378 5.9745 12.7901 5.9745 10.8845C5.9745 10.4567 5.6245 10.1067 5.19672 10.1067C4.76894 10.1067 4.41894 10.4567 4.41894 10.8845C4.41894 13.6456 6.66672 15.8934 9.42783 15.8934H15.0201C13.2312 19.8212 10.1512 22.4889 9.00005 23.3834C7.41339 22.1 2.07783 17.3167 1.6345 10.7212C1.3545 6.5445 4.45005 2.74894 8.40117 2.44561C10.4934 2.28227 12.4845 2.9745 14.0089 4.39005C15.5178 5.78227 16.3812 7.75783 16.3812 9.81116C16.3812 10.2389 16.7312 10.5889 17.1589 10.5889C17.5867 10.5889 17.9367 10.2389 17.9367 9.81116C17.9367 7.33005 16.8945 4.93449 15.0667 3.24672V3.23894Z" fill="white"/>
<path d="M12.6167 11.3355C12.6556 11.3355 12.7023 11.3433 12.7412 11.3433C13.1145 11.3433 13.449 11.0711 13.5112 10.69C13.7523 9.21221 13.2701 7.70332 12.2123 6.64554C10.4001 4.83332 7.45229 4.83332 5.63229 6.64554C5.32895 6.94888 5.32895 7.43888 5.63229 7.74221C5.93562 8.04554 6.42562 8.04554 6.72895 7.74221C7.93451 6.53665 9.90229 6.53665 11.1078 7.74221C11.8078 8.44999 12.1345 9.45332 11.9712 10.4333C11.9012 10.8533 12.189 11.2578 12.609 11.3278L12.6167 11.3355Z" fill="white"/>
</svg>
