<svg width="25" height="26" viewBox="0 0 25 26" fill="none" xmlns="http://www.w3.org/2000/svg">
<path d="M16.2279 0.689224C11.3864 0.689224 7.44642 4.62926 7.44642 9.47066C7.44642 10.7995 7.73449 12.0726 8.31062 13.262C8.53364 13.7266 9.09119 13.9218 9.54653 13.6988C10.0112 13.4757 10.2063 12.9182 9.98328 12.4629C9.53724 11.5243 9.30492 10.5207 9.30492 9.47066C9.30492 5.65143 12.4086 2.54773 16.2279 2.54773C20.0471 2.54773 23.1508 5.65143 23.1508 9.47066C23.1508 13.2899 20.0471 16.3936 16.2279 16.3936C14.6017 16.3936 13.0126 15.8175 11.7674 14.7674C11.405 14.4607 10.8661 14.4793 10.5222 14.8046L1.27618 23.7161C0.904481 24.0692 0.895186 24.6639 1.2483 25.0263C1.43415 25.2122 1.67576 25.3144 1.91737 25.3144C2.15897 25.3144 2.38199 25.2308 2.55855 25.0542L11.2285 16.691C12.6874 17.6945 14.4251 18.2428 16.2186 18.2428C21.06 18.2428 25 14.3028 25 9.46137C25 4.61996 21.06 0.679932 16.2186 0.679932L16.2279 0.689224Z" fill="#BDBDBD"/>
<path d="M19.1365 13.7731C19.2945 13.8753 19.471 13.9311 19.6476 13.9311C19.9449 13.9311 20.2423 13.7824 20.4188 13.5129C23.0393 9.54502 20.9764 6.35768 19.5175 5.23329C19.1086 4.91734 18.5325 4.99168 18.2165 5.40056C17.9006 5.80943 17.9749 6.38556 18.3838 6.70151C18.5046 6.79444 21.2087 8.95959 18.8763 12.4908C18.5975 12.9182 18.709 13.4943 19.1365 13.7824V13.7731Z" fill="#BDBDBD"/>
</svg>
