<svg width="97" height="30" viewBox="0 0 97 30" fill="none" xmlns="http://www.w3.org/2000/svg">
<g clip-path="url(#clip0_103_4633)">
<path d="M52.3643 9.60436C51.0983 8.03799 49.3087 7.06607 47.3237 6.86731C45.552 6.69043 43.8127 7.15177 42.3638 8.16928C42.2239 7.40888 41.5712 6.83266 40.784 6.83084H40.7786C39.8892 6.83084 39.1683 7.56206 39.1648 8.46651L39.145 13.9588C39.1271 14.2634 39.1253 14.5679 39.1414 14.8688L39.093 28.3498C39.0894 29.2561 39.8103 29.9928 40.7015 29.9964H40.7069C41.5963 29.9964 42.3172 29.2652 42.3207 28.3607L42.3476 20.6656C43.6118 21.5537 45.102 22.0114 46.6011 22.0114C48.2687 22.0114 49.9471 21.4479 51.3332 20.2882C54.5143 17.6314 54.977 12.8374 52.3625 9.60072L52.3643 9.60436ZM49.2854 17.7553C47.4797 19.2634 44.8025 18.9971 43.3195 17.1609C42.7601 16.468 42.4337 15.6346 42.3692 14.7594V14.0719C42.3727 14.05 42.3745 14.0263 42.3763 14.0044C42.4875 12.8593 43.0291 11.8254 43.9041 11.0942C44.6698 10.4541 45.6094 10.1131 46.5867 10.1131C46.7266 10.1131 46.8664 10.1204 47.0081 10.135C48.1342 10.2481 49.1509 10.7987 49.87 11.6886C51.353 13.5249 51.0912 16.2473 49.2854 17.7553Z" fill="#443D3D"/>
<path d="M13.2713 9.60436C12.0053 8.03799 10.2157 7.06607 8.23069 6.86731C6.45724 6.69043 4.71965 7.15177 3.27076 8.16928C3.1309 7.41071 2.47818 6.83266 1.69098 6.83084H1.6856C0.796183 6.83084 0.0753267 7.56206 0.0717403 8.46651L0.0520154 13.9588C0.0340836 14.2652 0.0322905 14.5697 0.048429 14.8706L1.33241e-05 28.3535C-0.00357303 29.2597 0.717283 29.9964 1.60849 30.0001H1.61387C2.50329 30.0001 3.22414 29.2688 3.22773 28.3644L3.25463 20.6711C4.28749 21.3987 5.48892 21.8527 6.77283 21.9804C7.02029 22.0059 7.26954 22.0168 7.51521 22.0168C9.23845 22.0168 10.8936 21.4169 12.242 20.29C15.4231 17.6332 15.8858 12.8392 13.2713 9.60254V9.60436ZM10.1924 17.7553C9.31735 18.4866 8.21634 18.8276 7.08843 18.7145C5.96232 18.6014 4.94559 18.0508 4.22653 17.1609C3.66706 16.468 3.3407 15.6346 3.27614 14.7594V14.0719C3.27973 14.05 3.28152 14.0281 3.28332 14.0044C3.39449 12.8593 3.93603 11.8254 4.8111 11.0942C5.57679 10.4541 6.51641 10.1131 7.49369 10.1131C7.63356 10.1131 7.77343 10.1204 7.91509 10.135C9.0412 10.2481 10.0579 10.7987 10.777 11.6886C12.2599 13.5249 11.9981 16.2473 10.1924 17.7553Z" fill="#443D3D"/>
<path d="M19.0238 17.0642C18.4105 17.0642 17.8923 17.2794 17.4691 17.7079C17.0477 18.1364 16.8361 18.6543 16.8361 19.2597C16.8361 19.8651 17.0477 20.4103 17.4691 20.8406C17.8905 21.2692 18.4087 21.4843 19.0238 21.4843C19.6389 21.4843 20.1266 21.2655 20.5498 20.8261C20.9712 20.3866 21.1828 19.8651 21.1828 19.2597C21.1828 18.6543 20.9712 18.1382 20.5498 17.7079C20.1284 17.2776 19.6191 17.0642 19.0238 17.0642Z" fill="#F5564E"/>
<path d="M20.6646 1.68308C20.6646 0.75354 19.9236 0 19.0095 0C18.0954 0 17.3544 0.75354 17.3544 1.68308V12.5711C17.3544 13.5007 18.0954 14.2542 19.0095 14.2542C19.9236 14.2542 20.6646 13.5007 20.6646 12.5711V1.68308Z" fill="#F5564E"/>
<path d="M27.3853 13.2587V19.7995C27.3853 20.7295 26.6448 21.4826 25.7302 21.4826H25.7015C24.787 21.4826 24.0464 20.7295 24.0464 19.7995V8.86955C24.0464 7.9651 24.7673 7.23024 25.6585 7.23024H25.6872C26.5766 7.23024 27.2993 7.96328 27.2993 8.86955V9.13396C27.7404 8.35351 28.3303 7.77364 29.0691 7.39253C29.8079 7.01142 30.5987 6.82178 31.4433 6.82178C33.093 6.82178 34.35 7.34877 35.2143 8.40274C36.0787 9.45672 36.509 10.8134 36.509 12.4709V19.8032C36.509 20.7332 35.7684 21.4863 34.8539 21.4863H34.8252C33.9107 21.4863 33.1701 20.7332 33.1701 19.8032V13.0563C33.1701 12.1008 32.9406 11.3349 32.4797 10.7587C32.0189 10.1843 31.2891 9.89618 30.2921 9.89618C29.3704 9.89618 28.6567 10.2135 28.1474 10.848C27.6382 11.4826 27.3853 12.2868 27.3853 13.2623V13.2587Z" fill="#443D3D"/>
<path d="M58.3051 21.4843H58.2764C57.3619 21.4843 56.6213 20.7312 56.6213 19.8012V1.97483C56.6213 1.04485 57.3619 0.291748 58.2764 0.291748H58.3051C59.2196 0.291748 59.9602 1.04485 59.9602 1.97483V19.8012C59.9602 20.7312 59.2196 21.4843 58.3051 21.4843Z" fill="#443D3D"/>
<path d="M62.4222 17.6202C62.4222 16.4113 62.8113 15.4393 63.5878 14.7081C64.3642 13.9769 65.3863 13.5137 66.6523 13.3186L70.2494 12.7625C70.9398 12.6658 71.2859 12.323 71.2859 11.7377C71.2859 11.094 71.0653 10.5725 70.6242 10.1713C70.1831 9.77194 69.5214 9.57136 68.6373 9.57136C67.7533 9.57136 67.1221 9.81024 66.6218 10.288C66.3995 10.4995 66.2201 10.7402 66.0821 11.0083C65.7539 11.6447 65.0546 11.9857 64.366 11.827L64.3463 11.8234C63.3224 11.5881 62.8077 10.3974 63.3582 9.4893C63.6505 9.00608 64.0379 8.56115 64.5202 8.15451C65.5943 7.24641 66.9571 6.79419 68.6069 6.79419C70.6403 6.79419 72.143 7.292 73.1113 8.28763C74.0796 9.28325 74.5656 10.5615 74.5656 12.1224V19.2048C74.5656 19.4328 74.5692 19.6498 74.5763 19.8576C74.605 20.7493 73.9093 21.4878 73.0324 21.4878C72.1878 21.4878 71.4975 20.7986 71.4867 19.9397C71.4867 19.854 71.4867 19.7646 71.4867 19.6717C70.565 21.1742 69.1269 21.9255 67.1687 21.9255C65.7485 21.9255 64.6027 21.5006 63.7294 20.6527C62.8561 19.8029 62.4204 18.7946 62.4204 17.6239L62.4222 17.6202ZM67.8053 19.2595C68.8418 19.2595 69.681 18.9714 70.3229 18.397C70.9649 17.8208 71.2877 16.8799 71.2877 15.5725C71.2877 15.2333 70.9918 14.9743 70.6618 15.0236L67.6332 15.4849C66.3851 15.7001 65.7629 16.3438 65.7629 17.416C65.7629 17.9229 65.9458 18.3569 66.3098 18.718C66.6738 19.079 67.1741 19.2595 67.8071 19.2595H67.8053Z" fill="#443D3D"/>
<path d="M77.9583 3.77644C77.5369 3.34792 77.3253 2.83005 77.3253 2.22465C77.3253 1.61926 77.5369 1.09774 77.9583 0.658279C78.3797 0.218818 78.889 0 79.4843 0C80.0796 0 80.6158 0.215171 81.039 0.643691C81.4604 1.07403 81.672 1.5992 81.672 2.22465C81.672 2.85011 81.4604 3.3461 81.039 3.77644C80.6176 4.20678 80.0994 4.42013 79.4843 4.42013C78.8692 4.42013 78.3815 4.20496 77.9583 3.77644ZM79.4986 21.4843C78.5841 21.4843 77.8435 20.7312 77.8435 19.8012V8.9132C77.8435 7.98322 78.5841 7.23012 79.4986 7.23012C80.4132 7.23012 81.1537 7.98322 81.1537 8.9132V19.8012C81.1537 20.7312 80.4132 21.4843 79.4986 21.4843Z" fill="#443D3D"/>
<path d="M87.8745 13.2586V19.7994C87.8745 20.7294 87.134 21.4825 86.2194 21.4825H86.1907C85.2762 21.4825 84.5356 20.7294 84.5356 19.7994V8.88401C84.5356 7.97044 85.2637 7.23011 86.1621 7.23011C87.0604 7.23011 87.7885 7.97044 87.7885 8.88401V9.13201C88.2296 8.35155 88.8195 7.77168 89.5583 7.39057C90.2971 7.00947 91.0879 6.81982 91.9325 6.81982C93.5822 6.81982 94.8392 7.34681 95.7035 8.40079C96.5679 9.45476 96.9982 10.8114 96.9982 12.469V19.8012C96.9982 20.7312 96.2576 21.4843 95.3431 21.4843H95.3144C94.3999 21.4843 93.6593 20.7312 93.6593 19.8012V13.0543C93.6593 12.0988 93.4298 11.333 92.969 10.7567C92.5081 10.1823 91.7783 9.89422 90.7813 9.89422C89.8596 9.89422 89.1459 10.2115 88.6366 10.8461C88.1274 11.4807 87.8745 12.2848 87.8745 13.2604V13.2586Z" fill="#443D3D"/>
</g>
<defs>
<clipPath id="clip0_103_4633">
<rect width="97" height="30" fill="white"/>
</clipPath>
</defs>
</svg>
