<svg width="4" height="14" viewBox="0 0 4 14" fill="none" xmlns="http://www.w3.org/2000/svg">
<path d="M2 3.49782C2.95555 3.49782 3.72889 2.72448 3.72889 1.76893C3.72889 0.813372 2.95555 0.0400391 2 0.0400391C1.04444 0.0400391 0.271111 0.813372 0.271111 1.76893C0.271111 2.72448 1.04444 3.49782 2 3.49782Z" fill="#828282"/>
<path d="M2 5.27124C1.04444 5.27124 0.271111 6.04457 0.271111 7.00013C0.271111 7.95568 1.04444 8.72902 2 8.72902C2.95555 8.72902 3.72889 7.95568 3.72889 7.00013C3.72889 6.04457 2.95555 5.27124 2 5.27124Z" fill="#828282"/>
<path d="M2 10.5022C1.04444 10.5022 0.271111 11.2755 0.271111 12.2311C0.271111 13.1866 1.04444 13.96 2 13.96C2.95555 13.96 3.72889 13.1866 3.72889 12.2311C3.72889 11.2755 2.95555 10.5022 2 10.5022Z" fill="#828282"/>
</svg>
