<svg width="16" height="22" viewBox="0 0 16 22" fill="none" xmlns="http://www.w3.org/2000/svg">
<path d="M14.4444 8.0614C14.7989 8.0614 15.0889 7.7714 15.0889 7.41696V4.14318C15.0889 3.78874 14.7989 3.49874 14.4444 3.49874H8.74753C9.03753 2.39029 10.03 1.57185 11.2286 1.57185C11.886 1.57185 12.5175 1.82318 12.9944 2.27429C13.2522 2.51918 13.6582 2.50629 13.9031 2.24851C14.148 1.99074 14.1351 1.58474 13.8773 1.33985C13.1555 0.656736 12.2146 0.282959 11.2222 0.282959C9.09553 0.282959 7.36197 2.01651 7.36197 4.14318C7.36197 4.49763 7.65197 4.78763 8.00641 4.78763C8.03219 4.78763 8.05797 4.77474 8.08375 4.77474C8.10953 4.77474 8.1353 4.78763 8.16108 4.78763H13.7935V6.77251H8.16108C7.80664 6.77251 7.51664 7.06251 7.51664 7.41696V16.7163C7.51664 16.8387 7.55531 16.9612 7.61975 17.0707L9.8173 20.4347H1.54264C1.18819 20.4347 0.898193 20.7247 0.898193 21.0792C0.898193 21.4336 1.18819 21.7236 1.54264 21.7236H11.2222C11.2673 21.7236 11.2995 21.7043 11.3382 21.6978C11.4026 21.7043 11.4671 21.7236 11.5315 21.7236C11.5573 21.7236 11.5831 21.7236 11.6089 21.7236C12.1889 21.6978 12.6915 21.3756 12.9686 20.8665L15.0051 17.0256C15.0566 16.9354 15.0824 16.8258 15.0824 16.7227V10.2912C15.0824 9.93674 14.7924 9.64674 14.438 9.64674C14.0835 9.64674 13.7935 9.93674 13.7935 10.2912V16.5616L11.828 20.2607C11.7506 20.409 11.6089 20.4347 11.5509 20.4347C11.4929 20.4347 11.3511 20.4347 11.2609 20.2865L8.80553 16.5294V8.06785H14.438L14.4444 8.0614Z" fill="current"/>
</svg>
