<svg width="24" height="24" viewBox="0 0 24 24" fill="none" xmlns="http://www.w3.org/2000/svg">
<path d="M12 0.48877C11.5722 0.48877 11.2222 0.83877 11.2222 1.26655V11.2221H8.18889C7.76111 11.2221 7.41111 11.5721 7.41111 11.9999C7.41111 12.4277 7.76111 12.7777 8.18889 12.7777H12C12.4278 12.7777 12.7778 12.4277 12.7778 11.9999V2.07544C17.9033 2.4721 21.9556 6.77321 21.9556 11.9999C21.9556 17.491 17.4911 21.9554 12 21.9554C6.50889 21.9554 2.04445 17.491 2.04445 11.9999C2.04445 10.1021 2.56556 8.28988 3.56111 6.71099L4.72 7.79988C4.91445 7.97877 5.18667 8.04877 5.44333 7.98655C5.7 7.92432 5.91 7.72988 5.98778 7.47321L7.86222 1.71766C7.94778 1.46877 7.89334 1.18877 7.72222 0.986547C7.55111 0.784325 7.29445 0.675435 7.03 0.706546L1.37556 1.37544C0.94778 1.42988 0.644445 1.81099 0.691112 2.23877C0.745557 2.66655 1.13445 2.97766 1.55445 2.92321L5.99556 2.39433L4.87556 5.8321L3.95 4.96099C3.78667 4.81321 3.56889 4.72766 3.35111 4.75099C3.13334 4.76655 2.93111 4.88321 2.79889 5.05432C1.27444 7.06877 0.473335 9.46432 0.473335 11.9999C0.473335 18.3465 5.63778 23.511 11.9844 23.511C18.3311 23.511 23.4956 18.3465 23.4956 11.9999C23.4956 5.65321 18.3311 0.48877 11.9844 0.48877H12Z" fill="#828282"/>
</svg>
