<svg width="20" height="18" viewBox="0 0 20 18" fill="none" xmlns="http://www.w3.org/2000/svg">
<path d="M13.9667 9.01113H8.47778C8.17222 9.01113 7.92222 9.26113 7.92222 9.56668V12.7778L3.62222 16.0389C3.37778 16.2222 3.02778 16.1778 2.83889 15.9389C2.74445 15.8167 2.7 15.6667 2.72222 15.5167C2.74444 15.3667 2.82222 15.2278 2.94444 15.1389L6.48334 12.5222C6.62223 12.4167 6.71111 12.25 6.71111 12.0778V9.51668C6.71111 9.21113 6.46111 8.96113 6.15555 8.96113H1.73333V3.23891C1.73333 2.93335 1.48333 2.68335 1.17778 2.68335C0.872223 2.68335 0.622223 2.93335 0.622223 3.23891V9.51668C0.622223 9.82224 0.872223 10.0722 1.17778 10.0722H5.6V11.7945L2.28889 14.2445C1.92222 14.5167 1.68334 14.9167 1.62222 15.3667C1.56111 15.8222 1.68333 16.2667 1.96667 16.6278C2.29444 17.0445 2.78889 17.2611 3.28333 17.2611C3.63889 17.2611 3.98888 17.15 4.28889 16.9222L8.81112 13.4945C8.95 13.3889 9.03333 13.2278 9.03333 13.05V10.1167H13.9667C14.2722 10.1167 14.5222 9.86668 14.5222 9.56113C14.5222 9.25557 14.2722 9.00557 13.9667 9.00557V9.01113Z" fill="current"/>
<path d="M13.9666 0.727783H1.17219C0.866638 0.727783 0.616638 0.977783 0.616638 1.28334C0.616638 1.58889 0.866638 1.83889 1.17219 1.83889H13.4111V7.60001C13.4111 7.90556 13.6611 8.15556 13.9666 8.15556C14.2722 8.15556 14.5222 7.90556 14.5222 7.60001V1.28334C14.5222 0.977783 14.2722 0.727783 13.9666 0.727783Z" fill="current"/>
<path d="M17.4499 2.54443H16.1333C15.8277 2.54443 15.5777 2.79443 15.5777 3.09999V4.01665C15.5777 4.32221 15.8277 4.57221 16.1333 4.57221C16.4388 4.57221 16.6888 4.32221 16.6888 4.01665V3.65554H17.4499C17.9055 3.65554 18.2777 4.02777 18.2777 4.48332V5.94999C18.2777 6.40554 17.9055 6.77777 17.4499 6.77777H16.6888V5.93332C16.6888 5.62777 16.4388 5.37777 16.1333 5.37777C15.8277 5.37777 15.5777 5.62777 15.5777 5.93332V7.33332C15.5777 7.63888 15.8277 7.88888 16.1333 7.88888H17.4499C18.5166 7.88888 19.3888 7.01665 19.3888 5.94999V4.48332C19.3888 3.41665 18.5166 2.54443 17.4499 2.54443Z" fill="current"/>
</svg>
