<svg width="18" height="16" viewBox="0 0 18 16" fill="none" xmlns="http://www.w3.org/2000/svg">
<path d="M1.45555 15.8945C1.14999 15.8945 0.899994 15.6445 0.899994 15.3389V12.7334C0.899994 11.2111 1.26664 9.7667 1.95553 8.56115C2.90553 6.88892 4.8611 4.8667 8.74444 4.70559C9.04444 4.68892 9.32221 4.80003 9.53888 5.01115C9.75554 5.22226 9.87776 5.51115 9.87776 5.81115V9.72781C10.6278 9.2167 11.8 8.33893 12.9333 7.48893C14.1166 6.60004 15.2389 5.76115 15.9611 5.27226V5.19448L10.2611 1.1167C10.0111 0.938925 9.95555 0.588924 10.1333 0.338924C10.3111 0.0889241 10.6555 0.0333688 10.9111 0.211147L16.6111 4.28892C16.9222 4.51115 17.1 4.8667 17.0944 5.25004C17.0889 5.63337 16.9 5.98337 16.5833 6.19448C15.8889 6.6667 14.7222 7.53337 13.6 8.37781C12.3167 9.33893 10.9833 10.3334 10.2333 10.8278C9.93888 11.0167 9.57221 11.0334 9.26666 10.8667C8.9611 10.7 8.76664 10.3778 8.76664 10.0278V5.80559C6.0722 5.92226 4.1 7.03337 2.91666 9.10559C2.32222 10.1445 2.0111 11.4 2.0111 12.7278V15.3334C2.0111 15.6389 1.7611 15.8889 1.45555 15.8889V15.8945Z" fill="#4F4F4F"/>
</svg>
