<svg width="14" height="20" viewBox="0 0 14 20" fill="none" xmlns="http://www.w3.org/2000/svg">
<path d="M10.8722 0.766846H3.12219C1.69997 0.766846 0.538864 1.92796 0.538864 3.35018V4.58351C0.538864 4.88907 0.788864 5.13907 1.09442 5.13907C1.39998 5.13907 1.64998 4.88907 1.64998 4.58351V3.35018C1.64998 2.53907 2.31108 1.87796 3.12219 1.87796H10.8722C11.6833 1.87796 12.3444 2.53907 12.3444 3.35018V16.6502C12.3444 17.4613 11.6833 18.1224 10.8722 18.1224H3.12219C2.31108 18.1224 1.64998 17.4613 1.64998 16.6502V7.05574C1.64998 6.75018 1.39998 6.50018 1.09442 6.50018C0.788864 6.50018 0.538864 6.75018 0.538864 7.05574V16.6502C0.538864 18.0724 1.69997 19.2335 3.12219 19.2335H10.8722C12.2944 19.2335 13.4555 18.0724 13.4555 16.6502V3.35018C13.4555 1.92796 12.2944 0.766846 10.8722 0.766846Z" fill="current"/>
<path d="M6.99998 13.4058C7.23331 13.4058 7.46108 13.4725 7.64997 13.6058C7.90553 13.778 8.24998 13.7113 8.4222 13.4558C8.59442 13.2002 8.52776 12.8558 8.27221 12.6836C7.89443 12.428 7.45554 12.2947 6.99998 12.2947C5.74442 12.2947 4.7222 13.3169 4.7222 14.5725C4.7222 15.828 5.74442 16.8502 6.99998 16.8502C8.25554 16.8502 9.27776 15.828 9.27776 14.5725C9.27776 14.2669 9.02776 14.0169 8.72221 14.0169C8.41665 14.0169 8.16665 14.2669 8.16665 14.5725C8.16665 15.2169 7.64442 15.7391 6.99998 15.7391C6.35554 15.7391 5.83331 15.2169 5.83331 14.5725C5.83331 13.928 6.35554 13.4058 6.99998 13.4058Z" fill="current"/>
<path d="M3.9388 13.4946C4.21658 13.6279 4.54992 13.5057 4.6777 13.2279C5.09992 12.3335 6.01102 11.7557 6.99436 11.7557C7.97769 11.7557 8.89435 12.3335 9.31657 13.2279C9.41102 13.4279 9.61102 13.5501 9.82213 13.5501C9.89991 13.5501 9.98325 13.5335 10.0555 13.5001C10.3333 13.3724 10.4555 13.039 10.3221 12.7613C9.72215 11.4779 8.41658 10.6501 6.99436 10.6501C5.57213 10.6501 4.2777 11.4779 3.67214 12.7557C3.53881 13.0335 3.66102 13.3668 3.9388 13.4946Z" fill="current"/>
<path d="M6.99998 8.22228C6.69442 8.22228 6.44442 8.47228 6.44442 8.77783C6.44442 9.08339 6.69442 9.33339 6.99998 9.33339C8.25554 9.33339 9.27776 8.31117 9.27776 7.05561C9.27776 5.80006 8.25554 4.77783 6.99998 4.77783C5.74442 4.77783 4.7222 5.80006 4.7222 7.05561C4.7222 7.45561 4.82775 7.85006 5.02775 8.1945C5.1833 8.46117 5.52221 8.55005 5.78887 8.40005C6.05554 8.2445 6.14443 7.90561 5.99443 7.63894C5.89443 7.46117 5.83887 7.26117 5.83887 7.05561C5.83887 6.41117 6.3611 5.88894 7.00554 5.88894C7.64999 5.88894 8.17219 6.41117 8.17219 7.05561C8.17219 7.70006 7.64999 8.22228 7.00554 8.22228H6.99998Z" fill="current"/>
<path d="M9.81658 6.03916C9.89435 6.03916 9.97768 6.02249 10.0499 5.98916C10.3277 5.86138 10.4499 5.52805 10.3166 5.25027C9.71657 3.96694 8.41102 3.13916 6.9888 3.13916C5.56658 3.13916 4.27213 3.96694 3.66657 5.24471C3.53324 5.52249 3.65547 5.85583 3.93325 5.9836C4.21102 6.11694 4.54435 5.99472 4.67213 5.71694C5.09435 4.82249 6.00547 4.24471 6.9888 4.24471C7.97213 4.24471 8.8888 4.82249 9.31102 5.71694C9.40546 5.91694 9.60547 6.03916 9.81658 6.03916Z" fill="current"/>
</svg>
